<svg width="39" height="42" viewBox="0 0 39 42" fill="none" xmlns="http://www.w3.org/2000/svg">
<path d="M25.6726 17.16C30.1126 24.35 32.0226 31.52 27.5126 35.5C27.1426 35.83 24.5926 37.31 24.1626 37.57C18.5226 41.06 10.0426 37.57 5.24255 29.78C0.442553 21.99 1.11255 12.85 6.75255 9.36998C7.10255 9.14998 10.1826 7.17997 10.5526 7.01997C16.1526 4.55997 21.1625 9.85998 25.6726 17.16Z" fill="url(#paint0_radial_546_3)"/>
<path d="M27.962 35.2162C33.606 31.7318 34.2842 22.5945 29.4768 14.8076C24.6693 7.0207 16.1968 3.53285 10.5528 7.01729C4.90882 10.5017 4.23065 19.639 9.03807 27.4259C13.8455 35.2128 22.318 38.7006 27.962 35.2162Z" fill="url(#paint1_linear_546_3)"/>
<path style="mix-blend-mode:screen" d="M6.00256 19.32L32.3426 28.78L32.6826 24.52L7.63256 10C7.63256 10 5.40256 13 6.00256 19.32Z" fill="url(#paint2_linear_546_3)"/>
<path d="M26.4626 16.68C29.8526 22.17 29.3826 28.62 25.3926 31.08C25.2514 31.1697 25.1044 31.2499 24.9526 31.32C20.9526 33.32 15.3126 30.87 12.0426 25.58C8.77256 20.29 9.11256 14.14 12.6626 11.49C12.8126 11.38 12.9626 11.27 13.1126 11.18C17.1026 8.71998 23.0726 11.18 26.4626 16.68Z" fill="url(#paint3_radial_546_3)"/>
<path d="M25.5326 17.25C28.7826 22.52 28.5326 28.66 24.9526 31.32C20.9526 33.32 15.3126 30.87 12.0426 25.58C8.77256 20.29 9.11256 14.14 12.6626 11.49C16.6326 9.49 22.2726 12 25.5326 17.25Z" fill="url(#paint4_linear_546_3)"/>
<path d="M27.6425 14.85C27.8581 14.6728 28.1229 14.5661 28.4011 14.5445C28.6793 14.523 28.9574 14.5875 29.1977 14.7293C29.438 14.8712 29.6288 15.0835 29.7443 15.3375C29.8598 15.5915 29.8944 15.8749 29.8434 16.1492C29.7923 16.4235 29.6581 16.6755 29.459 16.871C29.2599 17.0665 29.0055 17.196 28.7302 17.2419C28.455 17.2878 28.1723 17.248 27.9205 17.1278C27.6687 17.0076 27.4599 16.8129 27.3225 16.57C27.1402 16.2984 27.0716 15.9662 27.1315 15.6447C27.1913 15.3231 27.3748 15.0378 27.6425 14.85Z" fill="url(#paint5_radial_546_3)"/>
<path d="M27.6025 15.1C27.7861 14.9533 28.0103 14.8664 28.2447 14.8509C28.4792 14.8354 28.7128 14.8922 28.9141 15.0135C29.1153 15.1348 29.2746 15.3148 29.3705 15.5294C29.4663 15.744 29.4941 15.9827 29.4501 16.2136C29.4062 16.4444 29.2925 16.6562 29.1245 16.8206C28.9565 16.9849 28.7422 17.0938 28.5104 17.1326C28.2787 17.1714 28.0406 17.1383 27.8282 17.0377C27.6158 16.9371 27.4394 16.7739 27.3226 16.57C27.1652 16.3378 27.1064 16.0527 27.1589 15.7771C27.2113 15.5016 27.3709 15.2581 27.6025 15.1Z" fill="url(#paint6_linear_546_3)"/>
<path d="M12.0026 8.10001C12.3048 7.97852 12.6409 7.97044 12.9486 8.07725C13.2564 8.18407 13.5152 8.39857 13.6772 8.6812C13.8392 8.96384 13.8936 9.29553 13.8302 9.6151C13.7669 9.93467 13.5901 10.2205 13.3326 10.42C13.0355 10.5603 12.6949 10.577 12.3855 10.4664C12.0761 10.3558 11.8233 10.1269 11.6826 9.83001C11.4997 9.55688 11.4308 9.22311 11.4906 8.89991C11.5504 8.57671 11.7341 8.28967 12.0026 8.10001Z" fill="url(#paint7_radial_546_3)"/>
<path d="M11.9225 8.34999C12.1074 8.20134 12.3334 8.11294 12.5701 8.09671C12.8067 8.08048 13.0427 8.1372 13.2461 8.25922C13.4495 8.38124 13.6107 8.56269 13.7078 8.77912C13.8049 8.99555 13.8333 9.23655 13.7892 9.46963C13.7451 9.70271 13.6306 9.91667 13.4611 10.0827C13.2917 10.2487 13.0754 10.3587 12.8415 10.398C12.6075 10.4373 12.3672 10.4039 12.1528 10.3023C11.9384 10.2007 11.7603 10.0359 11.6425 9.82999C11.5631 9.71465 11.5073 9.58471 11.4783 9.44767C11.4494 9.31064 11.4479 9.16922 11.4739 9.0316C11.5 8.89399 11.553 8.76289 11.63 8.6459C11.707 8.52891 11.8064 8.42833 11.9225 8.34999Z" fill="url(#paint8_linear_546_3)"/>
<path d="M26.4926 31.64C26.7073 31.467 26.9698 31.3639 27.2448 31.3446C27.5198 31.3252 27.7942 31.3906 28.031 31.5318C28.2678 31.673 28.4557 31.8833 28.5694 32.1345C28.6831 32.3857 28.7172 32.6657 28.667 32.9368C28.6169 33.2079 28.4849 33.4572 28.2889 33.651C28.0928 33.8449 27.8422 33.9742 27.5705 34.0213C27.2989 34.0685 27.0193 34.0314 26.7694 33.9149C26.5194 33.7985 26.3112 33.6083 26.1726 33.37C25.9871 33.0976 25.9167 32.7631 25.9767 32.4391C26.0366 32.1152 26.222 31.828 26.4926 31.64Z" fill="url(#paint9_radial_546_3)"/>
<path d="M26.4525 31.89C26.6363 31.7444 26.8602 31.6585 27.0942 31.6438C27.3282 31.6291 27.5611 31.6862 27.7617 31.8075C27.9623 31.9289 28.121 32.1086 28.2166 32.3227C28.3122 32.5368 28.34 32.775 28.2964 33.0053C28.2529 33.2357 28.1399 33.4472 27.9727 33.6116C27.8056 33.7759 27.5921 33.8853 27.3611 33.925C27.13 33.9646 26.8924 33.9327 26.6799 33.8335C26.4675 33.7344 26.2905 33.5726 26.1725 33.37C26.0931 33.2546 26.0373 33.1247 26.0083 32.9877C25.9794 32.8506 25.9779 32.7092 26.0039 32.5716C26.03 32.434 26.083 32.3029 26.16 32.1859C26.237 32.0689 26.3365 31.9683 26.4525 31.89Z" fill="url(#paint10_linear_546_3)"/>
<path d="M10.1325 25.66C10.4401 25.5161 10.7906 25.4933 11.1142 25.5963C11.4378 25.6993 11.7107 25.9204 11.8785 26.2156C12.0463 26.5109 12.0967 26.8585 12.0196 27.1892C11.9425 27.5199 11.7436 27.8094 11.4625 28C11.1624 28.1374 10.8204 28.1515 10.5099 28.0393C10.1995 27.9271 9.94551 27.6975 9.80255 27.4C9.70967 27.2642 9.64451 27.1114 9.61083 26.9503C9.57714 26.7893 9.57558 26.6232 9.60624 26.4615C9.6369 26.2998 9.69918 26.1458 9.78949 26.0083C9.87981 25.8707 9.99639 25.7524 10.1325 25.66Z" fill="url(#paint11_radial_546_3)"/>
<path d="M10.0825 25.91C10.2672 25.7602 10.4934 25.6708 10.7306 25.6538C10.9677 25.6369 11.2044 25.6932 11.4085 25.8152C11.6126 25.9372 11.7742 26.1189 11.8716 26.3358C11.969 26.5528 11.9973 26.7944 11.9528 27.0279C11.9083 27.2615 11.7932 27.4758 11.6229 27.6417C11.4526 27.8076 11.2354 27.9172 11.0008 27.9556C10.7661 27.9941 10.5253 27.9594 10.311 27.8565C10.0967 27.7535 9.9192 27.5872 9.80254 27.38C9.64783 27.147 9.5905 26.8627 9.64283 26.5879C9.69517 26.3132 9.85301 26.0698 10.0825 25.91Z" fill="url(#paint12_linear_546_3)"/>
<path style="mix-blend-mode:screen" d="M2.23254 21.63L6.00254 19.32C6.00254 19.32 5.00254 15.52 7.28254 10.18L3.65254 12.63C3.65254 12.63 1.21254 17.59 2.23254 21.63Z" fill="url(#paint13_linear_546_3)"/>
<path d="M5.86255 17.72C5.86255 18.12 7.71255 14.95 7.61255 13.49C7.51255 12.03 7.40255 11 7.00255 11.05C6.60255 11.1 5.54255 15.19 5.86255 17.72Z" fill="white"/>
<path d="M32.0025 28.78C31.1825 29.65 32.0025 25.68 32.3625 25.63C32.7225 25.58 32.7025 28 32.0025 28.78Z" fill="white"/>
<defs>
<radialGradient id="paint0_radial_546_3" cx="0" cy="0" r="1" gradientUnits="userSpaceOnUse" gradientTransform="translate(17.4916 23.6418) rotate(-31.9448) scale(14.5146 14.5146)">
<stop stop-color="#FFBD00"/>
<stop offset="1" stop-color="#FF772C"/>
</radialGradient>
<linearGradient id="paint1_linear_546_3" x1="27.9503" y1="35.2352" x2="10.5358" y2="7.02779" gradientUnits="userSpaceOnUse">
<stop stop-color="#FFCC00"/>
<stop offset="1" stop-color="#FFBD00"/>
</linearGradient>
<linearGradient id="paint2_linear_546_3" x1="11.8862" y1="25.803" x2="28.8607" y2="15.2189" gradientUnits="userSpaceOnUse">
<stop stop-color="#FF9840"/>
<stop offset="0.1" stop-color="#EF8E3C"/>
<stop offset="0.29" stop-color="#C57531"/>
<stop offset="0.55" stop-color="#814D20"/>
<stop offset="0.88" stop-color="#241609"/>
<stop offset="1"/>
</linearGradient>
<radialGradient id="paint3_radial_546_3" cx="0" cy="0" r="1" gradientUnits="userSpaceOnUse" gradientTransform="translate(21.2826 21.278) rotate(-31.9448) scale(10.2273 10.2273)">
<stop stop-color="#FFBD00"/>
<stop offset="1" stop-color="#FF772C"/>
</radialGradient>
<linearGradient id="paint4_linear_546_3" x1="26.9949" y1="31.4805" x2="14.6299" y2="11.65" gradientUnits="userSpaceOnUse">
<stop stop-color="#FFCC00"/>
<stop offset="1" stop-color="#FF9700"/>
</linearGradient>
<radialGradient id="paint5_radial_546_3" cx="0" cy="0" r="1" gradientUnits="userSpaceOnUse" gradientTransform="translate(30.4247 16.7111) rotate(-119.887) scale(1.34462 1.14684)">
<stop stop-color="#FFBD00"/>
<stop offset="1" stop-color="#FF772C"/>
</radialGradient>
<linearGradient id="paint6_linear_546_3" x1="30.8888" y1="17.7761" x2="29.6437" y2="15.844" gradientUnits="userSpaceOnUse">
<stop stop-color="#00FFF4"/>
<stop offset="1" stop-color="#30A7FB"/>
</linearGradient>
<radialGradient id="paint7_radial_546_3" cx="0" cy="0" r="1" gradientUnits="userSpaceOnUse" gradientTransform="translate(14.7272 9.99131) rotate(-119.887) scale(1.34461 1.14684)">
<stop stop-color="#FFBD00"/>
<stop offset="1" stop-color="#FF772C"/>
</radialGradient>
<linearGradient id="paint8_linear_546_3" x1="15.1911" y1="11.0563" x2="13.9461" y2="9.12422" gradientUnits="userSpaceOnUse">
<stop stop-color="#00FFF4"/>
<stop offset="1" stop-color="#30A7FB"/>
</linearGradient>
<radialGradient id="paint9_radial_546_3" cx="0" cy="0" r="1" gradientUnits="userSpaceOnUse" gradientTransform="translate(29.3292 33.5953) rotate(-119.887) scale(1.34461 1.14684)">
<stop stop-color="#FFBD00"/>
<stop offset="1" stop-color="#FF772C"/>
</radialGradient>
<linearGradient id="paint10_linear_546_3" x1="29.7881" y1="34.6516" x2="28.5482" y2="32.7282" gradientUnits="userSpaceOnUse">
<stop stop-color="#00FFF4"/>
<stop offset="1" stop-color="#30A7FB"/>
</linearGradient>
<radialGradient id="paint11_radial_546_3" cx="0" cy="0" r="1" gradientUnits="userSpaceOnUse" gradientTransform="translate(12.9479 27.6441) rotate(-119.887) scale(1.34462 1.14684)">
<stop stop-color="#FFBD00"/>
<stop offset="1" stop-color="#FF772C"/>
</radialGradient>
<linearGradient id="paint12_linear_546_3" x1="13.4069" y1="28.7004" x2="12.1769" y2="26.7708" gradientUnits="userSpaceOnUse">
<stop stop-color="#00FFF4"/>
<stop offset="1" stop-color="#30A7FB"/>
</linearGradient>
<linearGradient id="paint13_linear_546_3" x1="2.34794" y1="18.836" x2="11.0944" y2="13.3823" gradientUnits="userSpaceOnUse">
<stop stop-color="#FF9840"/>
<stop offset="0.1" stop-color="#EF8E3C"/>
<stop offset="0.29" stop-color="#C57531"/>
<stop offset="0.55" stop-color="#814D20"/>
<stop offset="0.88" stop-color="#241609"/>
<stop offset="1"/>
</linearGradient>
</defs>
</svg>
