<svg width="75" height="74" viewBox="0 0 75 74" fill="none" xmlns="http://www.w3.org/2000/svg">
<path d="M54.7258 12.5952C56.1349 11.9138 57.1109 10.4758 57.1109 8.80685C57.1109 7.69183 56.668 6.62248 55.8795 5.83404C55.0911 5.0456 54.0217 4.60266 52.9067 4.60266C51.7917 4.60266 50.7223 5.0456 49.9339 5.83404C49.1454 6.62248 48.7025 7.69183 48.7025 8.80685C48.7025 10.4989 49.7016 11.9484 51.1396 12.6183C49.4764 21.6273 46.9238 28.3321 37.424 29.7643C37.424 29.7643 39.9823 42.5559 51.9481 42.5559C63.9138 42.5559 65.1266 29.8913 65.1266 29.8913C55.4188 30.388 54.5988 18.1854 54.7258 12.5952Z" fill="#F19534"/>
<path d="M20.203 12.5952C18.7939 11.9138 17.8179 10.4758 17.8179 8.80685C17.8179 7.69183 18.2608 6.62248 19.0493 5.83404C19.8377 5.0456 20.9071 4.60266 22.0221 4.60266C23.1371 4.60266 24.2065 5.0456 24.9949 5.83404C25.7833 6.62248 26.2263 7.69183 26.2263 8.80685C26.2263 10.4989 25.2272 11.9484 23.7892 12.6183C25.4524 21.6273 28.005 28.3321 37.5048 29.7643C37.5048 29.7643 34.9465 42.5559 22.9807 42.5559C11.015 42.5559 9.80798 29.8971 9.80798 29.8971C19.51 30.388 20.33 18.1854 20.203 12.5952Z" fill="#F19534"/>
<path d="M51.7863 42.5559C51.8382 42.5559 51.8902 42.5616 51.9422 42.5616C55.2397 42.5616 57.7172 41.5972 59.5767 40.2054L51.7863 42.5559Z" fill="#FFCA28"/>
<path d="M69.0015 9.73662C67.0785 9.47674 65.242 11.3074 64.9071 13.8138C64.6992 15.3788 65.1207 16.8399 65.935 17.7812L64.549 23.5273C64.549 23.5273 62.4296 37.1043 51.7228 39.7839C43.1642 41.9264 40.0631 26.2589 39.3123 21.4194C40.9409 20.6109 42.067 18.9362 42.067 16.99C42.067 14.2584 39.8552 12.0466 37.1236 12.0466C34.392 12.0466 32.1802 14.2584 32.1802 16.99C32.1802 18.9477 33.3237 20.6398 34.9811 21.4367C34.3863 26.2127 31.7644 41.3605 22.5244 39.7781C13.1458 38.1669 9.05138 22.3723 8.10428 18.0757C9.2304 17.1517 9.85988 15.5232 9.62888 13.7733C9.29393 11.2612 7.30733 9.45942 5.19369 9.74239C3.08004 10.0254 1.64207 12.2892 1.97702 14.7955C2.21957 16.6204 3.33991 18.0699 4.74324 18.6185L12.089 64.2583C12.089 64.2583 18.4993 69.323 37.1236 69.323C55.7479 69.323 62.1582 64.2583 62.1582 64.2583L69.5213 18.4973C70.7109 17.8736 71.6465 16.4703 71.8775 14.7493C72.2182 12.2372 70.9304 9.99649 69.0015 9.73662Z" fill="#FFCA28"/>
<path d="M37.3546 57.698C40.4611 57.698 42.9794 54.6962 42.9794 50.9932C42.9794 47.2903 40.4611 44.2885 37.3546 44.2885C34.2481 44.2885 31.7297 47.2903 31.7297 50.9932C31.7297 54.6962 34.2481 57.698 37.3546 57.698Z" fill="#1B3A4B"/>
<path d="M37.3547 45.9458C37.5741 46.1883 37.7705 46.633 37.3547 47.4992C36.9389 48.3655 34.6982 49.5378 34.2882 49.7746C33.8781 50.0171 33.6067 49.9074 33.4797 49.8092C32.8733 49.3241 33.1043 48.2269 33.497 47.557C34.3401 46.1075 36.1246 44.6117 37.3547 45.9458Z" fill="#006466"/>
<path d="M36.9388 53.4937C36.3036 53.7998 34.2188 54.7296 34.906 55.8326C35.3103 56.4852 36.1477 56.7624 36.9157 56.797C37.6838 56.8317 38.4403 56.5891 39.1218 56.2368C42.3558 54.5621 42.6156 50.1615 41.9862 49.8266C41.3394 49.4801 40.9005 50.3752 40.5655 50.7564C39.5471 51.897 38.3149 52.8269 36.9388 53.4937Z" fill="#144552"/>
<path d="M68.3375 45.5069C69.2384 40.5231 65.8889 39.2757 65.8889 39.2757C65.8889 39.2757 63.729 38.883 62.7126 44.4905C61.6962 50.0923 63.8561 50.485 63.8561 50.485C63.8561 50.485 67.4308 50.4907 68.3375 45.5069Z" fill="#1B3A4B"/>
<path d="M66.8475 40.9794C67.6329 42.0304 66.7031 43.5839 65.1959 44.6176C64.7512 44.9237 64.1622 44.8082 64.0755 44.5541C63.833 43.8264 63.9369 43.0006 64.2603 42.3018C65.219 40.2055 66.449 40.4481 66.8475 40.9794Z" fill="#006466"/>
<path d="M5.77692 45.6571C4.87024 40.679 8.22551 39.4258 8.22551 39.4258C8.22551 39.4258 10.3854 39.0332 11.4018 44.6407C12.4182 50.2424 10.2583 50.6351 10.2583 50.6351C10.2583 50.6351 6.67782 50.6409 5.77692 45.6571Z" fill="#1B3A4B"/>
<path d="M9.25347 41.1179C10.0273 41.6954 9.7097 42.4519 9.12642 42.9774C8.4623 43.5838 7.9541 44.2479 7.38815 44.9351C7.30153 45.0391 7.20335 45.1546 7.06475 45.1835C6.7991 45.2412 6.58543 44.9698 6.4988 44.7099C6.25048 43.9823 6.29668 43.1276 6.66628 42.4577C7.71732 40.5462 8.95317 40.8927 9.25347 41.1179Z" fill="#006466"/>
<path d="M57.8847 50.3348C57.4863 52.6044 55.6671 54.1809 53.8134 53.8575C51.9596 53.5341 51.7055 51.5995 52.104 49.33C52.5025 47.0604 53.3976 45.3221 55.2456 45.6455C57.0993 45.9689 58.2832 48.071 57.8847 50.3348Z" fill="#4D194D"/>
<path d="M17.7139 50.3348C18.1124 52.6044 19.9315 54.1809 21.7853 53.8575C23.639 53.5341 23.8931 51.5995 23.4947 49.33C23.0962 47.0604 22.2011 45.3221 20.3531 45.6455C18.5051 45.9689 17.3212 48.071 17.7139 50.3348Z" fill="#4D194D"/>
<path d="M20.3993 48.8217C19.9777 49.2953 18.9498 50.2482 18.5859 49.5205C18.0893 48.5272 18.7765 47.0257 19.5619 46.5291C20.3473 46.0324 20.9883 46.4251 21.0981 46.8698C21.2309 47.4358 20.7747 48.3944 20.3993 48.8217Z" fill="#FFA8A4" fill-opacity="0.1"/>
<path d="M53.2589 50.2713C52.6872 50.1846 52.6237 48.2154 54.1598 46.6677C54.8933 45.9285 55.9443 46.8063 55.6787 47.9901C55.4246 49.1163 54.3042 50.433 53.2589 50.2713Z" fill="#FFA8A4" fill-opacity="0.1"/>
<path d="M63.1746 56.7162C59.7153 58.4487 51.7805 63.0629 37.1294 63.0629C22.4782 63.0629 14.5434 58.4487 11.0842 56.7162C11.0842 56.7162 9.84253 57.3803 9.84253 58.0733V63.3921C9.84253 64.1024 10.2179 64.755 10.8301 65.1188C13.5327 66.7127 21.7679 70.478 37.1351 70.478C52.5024 70.478 60.7375 66.7127 63.4402 65.1188C63.7407 64.9416 63.9898 64.6892 64.163 64.3864C64.3361 64.0836 64.4274 63.7409 64.4277 63.3921V58.0733C64.4162 57.3803 63.1746 56.7162 63.1746 56.7162Z" fill="#FFCA28"/>
<path d="M23.0096 64.01C24.6266 64.3276 25.1175 64.4662 25.0077 65.3671C24.7825 67.1401 21.1038 66.7185 18.9267 66.1468C14.428 64.9629 13.5155 63.7155 13.5155 62.6009C13.5155 61.5788 14.3009 61.4575 15.5136 61.8848C16.9632 62.3988 19.2039 63.265 23.0096 64.01Z" fill="#FFF59D"/>
<path d="M63.1746 57.8827C63.1746 57.8827 53.6055 63.2996 37.1294 63.2996C20.6534 63.2996 11.0842 57.8827 11.0842 57.8827" stroke="#F19534" stroke-width="2.95679" stroke-miterlimit="10" stroke-linecap="round"/>
<path d="M15.7157 28.6266C18.788 26.4321 20.4396 22.4994 20.584 16.2393C20.5956 15.6733 20.7573 15.5059 21.0633 15.4712C21.5542 15.4192 21.6351 15.8639 21.6293 16.1815C21.4907 22.9383 20.6302 27.1598 17.223 29.5391C17.0555 29.6546 15.8601 30.3822 15.3519 29.8798C14.7455 29.2908 15.5194 28.7652 15.7157 28.6266Z" fill="#FFCA28"/>
<path d="M18.5282 8.97435C18.43 7.92907 18.6725 6.04643 21.4156 5.19173C22.2184 4.9434 22.715 5.3361 22.8074 5.64218C23.0384 6.40448 22.3685 6.70478 22.0624 6.80295C19.9546 7.4844 19.8506 8.53545 19.4175 9.20535C18.9844 9.87524 18.5628 9.29197 18.5282 8.97435Z" fill="#FFCA28"/>
<path d="M45.3126 27.2406C48.0903 24.7747 49.9326 22.0201 51.1453 15.7484C51.255 15.194 51.4167 15.0439 51.717 15.0554C52.2079 15.067 52.231 15.5232 52.179 15.835C51.1511 22.5225 50.1751 24.4282 46.7505 28.2224C46.3636 28.6497 45.4223 29.0367 44.891 28.592C44.4117 28.1935 44.9661 27.5525 45.3126 27.2406Z" fill="#FFCA28"/>
<path d="M49.4012 9.02635C49.303 7.98108 49.5456 6.09843 52.2887 5.24373C53.0914 4.99541 53.5881 5.3881 53.6805 5.69418C53.9115 6.45648 53.2416 6.75678 52.9355 6.85495C50.8276 7.5364 50.7237 8.58745 50.2905 9.25735C49.8632 9.92725 49.4358 9.34397 49.4012 9.02635Z" fill="#FFCA28"/>
<path d="M18.3838 41.3605C11.6733 38.317 9.69821 30.3764 8.64716 26.9288C8.50856 26.4725 8.57786 26.0394 9.03409 25.9008C9.49031 25.7622 9.76174 26.0567 9.90611 26.513C10.6684 29.0135 13.631 37.3642 19.7467 39.7377C20.1914 39.9109 20.8844 40.3325 20.509 41.0544C20.2607 41.5222 19.4637 41.8513 18.3838 41.3605Z" fill="#FFF59D"/>
<path d="M7.46328 14.2237C7.13988 13.5538 7.00705 12.9186 5.24568 12.1852C4.80101 12.0004 4.50648 11.5903 4.62776 11.1283C4.74903 10.6663 5.21103 10.3198 5.88093 10.4353C8.0581 10.8107 8.53165 13.0225 8.62405 13.7906C8.71068 14.5298 7.79245 14.8936 7.46328 14.2237Z" fill="#FFF59D"/>
<path d="M56.0828 41.3605C62.7934 38.317 64.7684 30.3764 65.8195 26.9288C65.9581 26.4725 65.8888 26.0394 65.4325 25.9008C64.9763 25.7622 64.7049 26.0567 64.5605 26.513C63.7982 29.0135 60.8357 37.3642 54.7199 39.7377C54.2753 39.9109 53.5823 40.3325 53.9577 41.0544C54.206 41.5222 55.0029 41.8513 56.0828 41.3605Z" fill="#FFF59D"/>
<path d="M67.0035 14.2237C67.3269 13.5538 67.4597 12.9186 69.2211 12.1852C69.6658 12.0004 69.9603 11.5903 69.839 11.1283C69.7178 10.6663 69.2558 10.3198 68.5859 10.4353C66.4087 10.8107 65.9351 13.0225 65.8427 13.7906C65.7561 14.5298 66.6801 14.8936 67.0035 14.2237Z" fill="#FFF59D"/>
<path d="M34.4325 17.0651C34.7848 16.3432 35.4027 15.3557 37.4182 14.9399C38.192 14.7782 38.4172 14.4433 38.3479 13.9351C38.2093 12.8782 36.8926 12.9533 36.1823 13.1208C33.8146 13.6752 33.289 15.7773 33.1909 16.6089C33.0927 17.4001 34.086 17.787 34.4325 17.0651Z" fill="#FFF59D"/>
</svg>
