<svg width="45" height="44" viewBox="0 0 45 44" fill="none" xmlns="http://www.w3.org/2000/svg">
<path d="M22.7025 1.21997C26.5225 1.21997 29.4625 14.92 29.4625 14.92C29.4625 14.92 43.4025 13.48 44.5825 17.11C45.7625 20.74 33.6425 27.78 33.6425 27.78C33.6425 27.78 39.3125 40.59 36.2225 42.84C33.1325 45.09 22.7025 35.73 22.7025 35.73C22.7025 35.73 12.2725 45.08 9.18253 42.84C6.09253 40.6 11.7625 27.78 11.7625 27.78C11.7625 27.78 -0.357469 20.78 0.82253 17.11C2.00253 13.44 15.9425 14.92 15.9425 14.92C15.9425 14.92 18.8825 1.21997 22.7025 1.21997Z" fill="#00D6C2"/>
<path d="M22.7025 0.5C26.5225 0.5 29.4625 14.2 29.4625 14.2C29.4625 14.2 43.4025 12.76 44.5825 16.4C45.7625 20.04 33.6425 27.06 33.6425 27.06C33.6425 27.06 39.3125 39.88 36.2225 42.12C33.1325 44.36 22.7025 35 22.7025 35C22.7025 35 12.2725 44.36 9.18253 42.11C6.09253 39.86 11.7625 27.05 11.7625 27.05C11.7625 27.05 -0.357469 20 0.82253 16.4C2.00253 12.8 15.9425 14.2 15.9425 14.2C15.9425 14.2 18.8825 0.5 22.7025 0.5Z" fill="url(#paint0_linear_501_5864)"/>
<g style="mix-blend-mode:screen">
<path d="M22.7021 1C23.0066 1 23.3414 1.13069 23.7099 1.42871C24.0794 1.72765 24.4541 2.17245 24.8252 2.7373C25.5673 3.86719 26.2419 5.39501 26.8134 6.95215C27.383 8.50378 27.841 10.0594 28.1572 11.2285C28.3151 11.8123 28.437 12.2989 28.5195 12.6387C28.5607 12.8084 28.5923 12.9419 28.6133 13.0322C28.6237 13.0773 28.6315 13.1118 28.6367 13.1348C28.6392 13.146 28.6413 13.1545 28.6425 13.1602C28.6432 13.163 28.6442 13.1656 28.6445 13.167V13.168L28.7402 13.6016L29.1816 13.5576H29.1836C29.1848 13.5575 29.1869 13.5569 29.1894 13.5566C29.1945 13.5561 29.2027 13.5557 29.2129 13.5547C29.2337 13.5527 29.2649 13.5496 29.3056 13.5459C29.3876 13.5384 29.5087 13.5274 29.664 13.5146C29.9751 13.4891 30.4235 13.456 30.9697 13.4229C32.0628 13.3566 33.5456 13.2936 35.1074 13.3066C36.6719 13.3197 38.3012 13.4083 39.6933 13.6416C40.7998 13.827 41.6915 14.0947 42.2871 14.4414C42.2413 14.4765 42.1947 14.5111 42.1465 14.543L42.1328 14.5527C39.4486 16.4632 35.5292 17.2702 30.7802 17.2578C26.043 17.2454 20.5503 16.418 14.7822 15.1318C9.85042 14.0285 6.75723 13.7546 4.81735 13.8154C6.15479 13.4983 7.8413 13.3558 9.52243 13.3145C11.2303 13.2724 12.9062 13.3339 14.1572 13.4053C14.7822 13.4409 15.3002 13.4785 15.6611 13.5078C15.8413 13.5225 15.9824 13.5352 16.0781 13.5439C16.126 13.5483 16.1631 13.5514 16.1875 13.5537C16.1994 13.5549 16.2089 13.5561 16.2148 13.5566C16.2174 13.5569 16.2193 13.5575 16.2207 13.5576H16.2226L16.664 13.6016L16.7607 13.168V13.167C16.761 13.1656 16.762 13.163 16.7627 13.1602C16.7639 13.1545 16.766 13.146 16.7685 13.1348C16.7737 13.1118 16.7815 13.0773 16.792 13.0322C16.8129 12.9419 16.8445 12.8085 16.8857 12.6387C16.9682 12.2989 17.0901 11.8123 17.248 11.2285C17.5642 10.0594 18.0223 8.50378 18.5918 6.95215C19.1633 5.395 19.8379 3.86718 20.58 2.7373C20.9511 2.17242 21.3258 1.72765 21.6953 1.42871C22.0636 1.13083 22.3978 1.00012 22.7021 1Z" fill="url(#paint1_linear_501_5864)" style="mix-blend-mode:screen"/>
<path d="M22.7021 1C23.0066 1 23.3414 1.13069 23.7099 1.42871C24.0794 1.72765 24.4541 2.17245 24.8252 2.7373C25.5673 3.86719 26.2419 5.39501 26.8134 6.95215C27.383 8.50378 27.841 10.0594 28.1572 11.2285C28.3151 11.8123 28.437 12.2989 28.5195 12.6387C28.5607 12.8084 28.5923 12.9419 28.6133 13.0322C28.6237 13.0773 28.6315 13.1118 28.6367 13.1348C28.6392 13.146 28.6413 13.1545 28.6425 13.1602C28.6432 13.163 28.6442 13.1656 28.6445 13.167V13.168L28.7402 13.6016L29.1816 13.5576H29.1836C29.1848 13.5575 29.1869 13.5569 29.1894 13.5566C29.1945 13.5561 29.2027 13.5557 29.2129 13.5547C29.2337 13.5527 29.2649 13.5496 29.3056 13.5459C29.3876 13.5384 29.5087 13.5274 29.664 13.5146C29.9751 13.4891 30.4235 13.456 30.9697 13.4229C32.0628 13.3566 33.5456 13.2936 35.1074 13.3066C36.6719 13.3197 38.3012 13.4083 39.6933 13.6416C40.7998 13.827 41.6915 14.0947 42.2871 14.4414C42.2413 14.4765 42.1947 14.5111 42.1465 14.543L42.1328 14.5527C39.4486 16.4632 35.5292 17.2702 30.7802 17.2578C26.043 17.2454 20.5503 16.418 14.7822 15.1318C9.85042 14.0285 6.75723 13.7546 4.81735 13.8154C6.15479 13.4983 7.8413 13.3558 9.52243 13.3145C11.2303 13.2724 12.9062 13.3339 14.1572 13.4053C14.7822 13.4409 15.3002 13.4785 15.6611 13.5078C15.8413 13.5225 15.9824 13.5352 16.0781 13.5439C16.126 13.5483 16.1631 13.5514 16.1875 13.5537C16.1994 13.5549 16.2089 13.5561 16.2148 13.5566C16.2174 13.5569 16.2193 13.5575 16.2207 13.5576H16.2226L16.664 13.6016L16.7607 13.168V13.167C16.761 13.1656 16.762 13.163 16.7627 13.1602C16.7639 13.1545 16.766 13.146 16.7685 13.1348C16.7737 13.1118 16.7815 13.0773 16.792 13.0322C16.8129 12.9419 16.8445 12.8085 16.8857 12.6387C16.9682 12.2989 17.0901 11.8123 17.248 11.2285C17.5642 10.0594 18.0223 8.50378 18.5918 6.95215C19.1633 5.395 19.8379 3.86718 20.58 2.7373C20.9511 2.17242 21.3258 1.72765 21.6953 1.42871C22.0636 1.13083 22.3978 1.00012 22.7021 1Z" stroke="white"/>
</g>
<path d="M19.1725 4.71C19.1725 4.71 20.9325 0.959995 22.0725 1.05C23.2125 1.14 22.1525 3.95 21.7725 4.29C21.3925 4.63 19.5225 5 19.1725 4.71Z" fill="white"/>
<path d="M2.74253 14.6C2.63253 15.18 6.97253 14.07 6.99253 13.52C7.01253 12.97 3.00253 13.21 2.74253 14.6Z" fill="white"/>
<path style="mix-blend-mode:screen" d="M13.6726 27.18C13.8979 27.1665 14.1222 27.2202 14.317 27.3343C14.5118 27.4483 14.6683 27.6177 14.7667 27.8208C14.8652 28.0239 14.9011 28.2517 14.87 28.4753C14.8388 28.6989 14.742 28.9082 14.5917 29.0767C14.4415 29.2452 14.2446 29.3653 14.0261 29.4217C13.8075 29.4782 13.5771 29.4685 13.3641 29.3939C13.151 29.3193 12.9649 29.1831 12.8293 29.0026C12.6938 28.8221 12.6148 28.6054 12.6026 28.38C12.5888 28.0799 12.693 27.7862 12.893 27.562C13.093 27.3377 13.3728 27.2006 13.6726 27.18Z" fill="url(#paint2_radial_501_5864)"/>
<path d="M13.8125 28C13.8533 27.9973 13.8941 28.0027 13.9328 28.0158C13.9714 28.0289 14.0071 28.0495 14.0378 28.0765C14.0684 28.1034 14.0935 28.1361 14.1115 28.1728C14.1294 28.2094 14.14 28.2493 14.1425 28.29C14.1508 28.3361 14.1488 28.3834 14.1368 28.4286C14.1248 28.4738 14.103 28.5159 14.0729 28.5517C14.0429 28.5876 14.0054 28.6165 13.963 28.6363C13.9206 28.6561 13.8743 28.6664 13.8275 28.6664C13.7807 28.6664 13.7345 28.6561 13.6921 28.6363C13.6497 28.6165 13.6122 28.5876 13.5822 28.5517C13.5521 28.5159 13.5303 28.4738 13.5183 28.4286C13.5063 28.3834 13.5043 28.3361 13.5125 28.29C13.5175 28.213 13.551 28.1406 13.6064 28.087C13.6619 28.0334 13.7354 28.0023 13.8125 28Z" fill="#FFFFAB"/>
<path style="mix-blend-mode:screen" d="M26.6225 15.94C26.8454 15.9266 27.0673 15.9796 27.2601 16.0922C27.453 16.2049 27.6081 16.3721 27.706 16.5728C27.8038 16.7735 27.84 16.9988 27.81 17.22C27.7799 17.4413 27.685 17.6487 27.5371 17.8161C27.3893 17.9835 27.1952 18.1033 26.9793 18.1604C26.7634 18.2175 26.5355 18.2094 26.3242 18.1371C26.1129 18.0647 25.9278 17.9314 25.7923 17.754C25.6567 17.5765 25.5768 17.3629 25.5625 17.14C25.5531 16.9916 25.573 16.8427 25.6212 16.702C25.6694 16.5612 25.7449 16.4314 25.8433 16.3199C25.9418 16.2084 26.0613 16.1175 26.1951 16.0523C26.3288 15.9871 26.474 15.9489 26.6225 15.94Z" fill="url(#paint3_radial_501_5864)"/>
<path d="M26.7625 16.75C26.8261 16.7461 26.8894 16.7612 26.9443 16.7934C26.9992 16.8256 27.0433 16.8735 27.0709 16.9309C27.0984 16.9883 27.1082 17.0527 27.099 17.1157C27.0898 17.1787 27.062 17.2375 27.0191 17.2846C26.9763 17.3318 26.9204 17.365 26.8585 17.3802C26.7967 17.3954 26.7317 17.3917 26.6719 17.3697C26.6122 17.3478 26.5603 17.3085 26.523 17.2568C26.4857 17.2052 26.4647 17.1437 26.4625 17.08C26.4598 17.0385 26.4655 16.9968 26.4793 16.9575C26.493 16.9182 26.5145 16.8821 26.5425 16.8513C26.5705 16.8205 26.6044 16.7957 26.6422 16.7783C26.68 16.7609 26.7209 16.7513 26.7625 16.75Z" fill="#FFFFAB"/>
<path style="mix-blend-mode:screen" d="M20.3726 13.45C20.9978 13.4175 21.6188 13.5709 22.157 13.8908C22.6952 14.2107 23.1266 14.6829 23.3968 15.2477C23.667 15.8126 23.7639 16.4447 23.6753 17.0646C23.5866 17.6844 23.3164 18.2641 22.8987 18.7305C22.481 19.1969 21.9345 19.5292 21.3282 19.6855C20.7219 19.8417 20.0828 19.8149 19.4917 19.6084C18.9006 19.4019 18.3839 19.025 18.0068 18.5252C17.6296 18.0254 17.409 17.4251 17.3726 16.8C17.3469 16.3825 17.4044 15.964 17.5417 15.5689C17.6791 15.1737 17.8935 14.8098 18.1726 14.4982C18.4516 14.1865 18.7898 13.9334 19.1675 13.7535C19.5451 13.5736 19.9547 13.4704 20.3726 13.45Z" fill="url(#paint4_radial_501_5864)"/>
<path d="M20.7526 15.72C20.8685 15.7119 20.9848 15.7271 21.0947 15.7647C21.2047 15.8022 21.306 15.8614 21.3927 15.9388C21.4794 16.0162 21.5497 16.1101 21.5995 16.2151C21.6492 16.3201 21.6775 16.4339 21.6826 16.55C21.6921 16.7237 21.65 16.8963 21.5616 17.0461C21.4731 17.1958 21.3423 17.316 21.1856 17.3914C21.0289 17.4669 20.8533 17.4942 20.6811 17.4699C20.5089 17.4456 20.3477 17.3709 20.2179 17.2551C20.0882 17.1393 19.9956 16.9876 19.952 16.8192C19.9084 16.6509 19.9156 16.4733 19.9728 16.3091C20.0301 16.1448 20.1346 16.0012 20.2734 15.8964C20.4122 15.7915 20.5789 15.7302 20.7526 15.72Z" fill="#FFFFAB"/>
<path style="mix-blend-mode:screen" d="M14.4525 30.71C14.6028 30.7003 14.7526 30.7355 14.8829 30.8111C15.0132 30.8868 15.1181 30.9994 15.1842 31.1347C15.2503 31.27 15.2748 31.4219 15.2544 31.5712C15.2341 31.7204 15.1698 31.8603 15.0698 31.9729C14.9698 32.0856 14.8386 32.166 14.6929 32.2039C14.5471 32.2419 14.3933 32.2356 14.2511 32.186C14.1089 32.1364 13.9846 32.0457 13.8941 31.9253C13.8035 31.805 13.7508 31.6604 13.7425 31.51C13.7316 31.31 13.8 31.1138 13.933 30.964C14.0659 30.8142 14.2526 30.7229 14.4525 30.71Z" fill="url(#paint5_radial_501_5864)"/>
<path d="M14.5425 31.26C14.5696 31.2572 14.597 31.2601 14.6229 31.2682C14.6489 31.2764 14.6729 31.2898 14.6935 31.3076C14.7141 31.3254 14.7308 31.3472 14.7427 31.3717C14.7546 31.3962 14.7613 31.4228 14.7625 31.45C14.7653 31.4776 14.7625 31.5055 14.7545 31.532C14.7464 31.5585 14.7331 31.5832 14.7155 31.6046C14.6978 31.626 14.6761 31.6437 14.6515 31.6566C14.627 31.6695 14.6002 31.6775 14.5725 31.68C14.5164 31.6805 14.462 31.6604 14.4196 31.6236C14.3773 31.5867 14.3499 31.5357 14.3425 31.48C14.3412 31.4524 14.3453 31.4248 14.3546 31.3988C14.364 31.3728 14.3783 31.3489 14.3969 31.3285C14.4155 31.3081 14.4379 31.2915 14.4629 31.2797C14.4879 31.268 14.5149 31.2613 14.5425 31.26Z" fill="#FFFFAB"/>
<path style="mix-blend-mode:screen" d="M28.5325 30.93C28.6829 30.9203 28.8327 30.9555 28.9629 31.0311C29.0932 31.1067 29.1981 31.2193 29.2642 31.3547C29.3304 31.49 29.3548 31.6419 29.3344 31.7912C29.3141 31.9404 29.2498 32.0802 29.1498 32.1929C29.0499 32.3055 28.9186 32.3859 28.7729 32.4239C28.6271 32.4618 28.4734 32.4556 28.3311 32.406C28.1889 32.3564 28.0646 32.2657 27.9741 32.1453C27.8835 32.0249 27.8308 31.8804 27.8226 31.73C27.8116 31.53 27.88 31.3337 28.013 31.1839C28.1459 31.0341 28.3327 30.9429 28.5325 30.93Z" fill="url(#paint6_radial_501_5864)"/>
<path d="M28.6326 31.47C28.674 31.4681 28.7151 31.4785 28.7507 31.4999C28.7863 31.5213 28.8147 31.5528 28.8323 31.5904C28.85 31.628 28.8561 31.6699 28.85 31.711C28.8438 31.752 28.8256 31.7903 28.7977 31.821C28.7698 31.8518 28.7334 31.8735 28.6931 31.8836C28.6528 31.8936 28.6105 31.8915 28.5714 31.8774C28.5323 31.8634 28.4983 31.8381 28.4736 31.8048C28.4488 31.7714 28.4346 31.7315 28.4326 31.69C28.4312 31.6624 28.4353 31.6348 28.4447 31.6089C28.454 31.5829 28.4683 31.559 28.4869 31.5385C28.5055 31.5181 28.5279 31.5015 28.5529 31.4898C28.5779 31.478 28.605 31.4713 28.6326 31.47Z" fill="#FFFFAB"/>
<defs>
<linearGradient id="paint0_linear_501_5864" x1="22.7025" y1="42.47" x2="22.7025" y2="0.5" gradientUnits="userSpaceOnUse">
<stop stop-color="#008EC2"/>
<stop offset="1" stop-color="#003BC2"/>
</linearGradient>
<linearGradient id="paint1_linear_501_5864" x1="1.89255" y1="9.12" x2="43.0625" y2="9.12" gradientUnits="userSpaceOnUse">
<stop stop-color="#FF9840"/>
<stop offset="0.1" stop-color="#EF8E3C"/>
<stop offset="0.29" stop-color="#C57531"/>
<stop offset="0.55" stop-color="#814D20"/>
<stop offset="0.88" stop-color="#241609"/>
<stop offset="1"/>
</linearGradient>
<radialGradient id="paint2_radial_501_5864" cx="0" cy="0" r="1" gradientUnits="userSpaceOnUse" gradientTransform="translate(14.4842 28.9854) rotate(-93.4336) scale(1.13203)">
<stop stop-color="#00B359"/>
<stop offset="0.13" stop-color="#009148"/>
<stop offset="0.34" stop-color="#005E2F"/>
<stop offset="0.54" stop-color="#00351A"/>
<stop offset="0.73" stop-color="#00180C"/>
<stop offset="0.89" stop-color="#000603"/>
<stop offset="1"/>
</radialGradient>
<radialGradient id="paint3_radial_501_5864" cx="0" cy="0" r="1" gradientUnits="userSpaceOnUse" gradientTransform="translate(27.4571 17.7194) rotate(-93.4336) scale(1.13203)">
<stop stop-color="#00B359"/>
<stop offset="0.13" stop-color="#009148"/>
<stop offset="0.34" stop-color="#005E2F"/>
<stop offset="0.54" stop-color="#00351A"/>
<stop offset="0.73" stop-color="#00180C"/>
<stop offset="0.89" stop-color="#000603"/>
<stop offset="1"/>
</radialGradient>
<radialGradient id="paint4_radial_501_5864" cx="0" cy="0" r="1" gradientUnits="userSpaceOnUse" gradientTransform="translate(21.318 17.2648) rotate(-93.4336) scale(3.1757 3.1757)">
<stop stop-color="#00B359"/>
<stop offset="0.13" stop-color="#009148"/>
<stop offset="0.34" stop-color="#005E2F"/>
<stop offset="0.54" stop-color="#00351A"/>
<stop offset="0.73" stop-color="#00180C"/>
<stop offset="0.89" stop-color="#000603"/>
<stop offset="1"/>
</radialGradient>
<radialGradient id="paint5_radial_501_5864" cx="0" cy="0" r="1" gradientUnits="userSpaceOnUse" gradientTransform="translate(15.2455 32.1412) rotate(-93.4336) scale(0.761368 0.761366)">
<stop stop-color="#00B359"/>
<stop offset="0.13" stop-color="#009148"/>
<stop offset="0.34" stop-color="#005E2F"/>
<stop offset="0.54" stop-color="#00351A"/>
<stop offset="0.73" stop-color="#00180C"/>
<stop offset="0.89" stop-color="#000603"/>
<stop offset="1"/>
</radialGradient>
<radialGradient id="paint6_radial_501_5864" cx="0" cy="0" r="1" gradientUnits="userSpaceOnUse" gradientTransform="translate(29.3591 32.3582) rotate(-93.4336) scale(0.761366)">
<stop stop-color="#00B359"/>
<stop offset="0.13" stop-color="#009148"/>
<stop offset="0.34" stop-color="#005E2F"/>
<stop offset="0.54" stop-color="#00351A"/>
<stop offset="0.73" stop-color="#00180C"/>
<stop offset="0.89" stop-color="#000603"/>
<stop offset="1"/>
</radialGradient>
</defs>
</svg>
